<?xml version="1.0" encoding="UTF-8"?>
<svg width="289px" height="53px" viewBox="0 0 289 53" version="1.1" xmlns="http://www.w3.org/2000/svg" xmlns:xlink="http://www.w3.org/1999/xlink">
    <!-- Generator: Sketch 53 (72520) - https://sketchapp.com -->
    <title>OpRX_logo_no tag_cmyk</title>
    <desc>Created with Sketch.</desc>
    <defs>
        <polygon id="path-1" points="0 0.866 259.759 0.866 259.759 52.94 0 52.94"></polygon>
    </defs>
    <g id="OpRX_logo_no-tag_cmyk" stroke="none" stroke-width="1" fill="none" fill-rule="evenodd">
        <polyline id="Fill-1" fill="#2E283A" points="266.337 15.971 261.65 20.658 269.587 28.595 261.65 36.532 266.337 41.219 274.273 33.282 274.273 23.908 266.337 15.971"></polyline>
        <polyline id="Fill-2" fill="#729A40" points="288.226 20.658 283.539 15.971 275.602 23.908 275.602 33.282 283.539 41.219 288.226 36.532 280.289 28.595 288.226 20.658"></polyline>
        <g id="Group-6">
            <mask id="mask-2" fill="white">
                <use xlink:href="#path-1"></use>
            </mask>
            <g id="Clip-4"></g>
            <path d="M246.425,19.729 L236.424,19.729 L236.424,9.892 L246.425,9.892 C249.813,9.892 251.89,11.314 251.89,14.756 C251.89,18.089 249.977,19.729 246.425,19.729 Z M259.759,14.592 C259.759,6.45 253.803,2.46 246.588,2.46 L228.773,2.46 L228.773,40.714 L236.424,40.714 L236.424,26.942 L244.129,26.942 L250.96,40.714 L259.759,40.714 L252.437,25.85 C257.3,23.937 259.759,20.33 259.759,14.592 L259.759,14.592 Z" id="Fill-3" fill="#729A40" mask="url(#mask-2)"></path>
            <path d="M147.849,17.998 C147.138,16.996 146.163,16.186 144.925,15.566 C143.686,14.947 142.083,14.637 140.116,14.637 C138.367,14.637 136.7,15.074 135.115,15.949 C133.531,16.823 132.337,18.208 131.536,20.102 C130.916,18.171 129.915,16.778 128.53,15.921 C127.146,15.065 125.615,14.637 123.94,14.637 C121.899,14.637 120.115,15.138 118.584,16.14 C117.054,17.143 115.961,18.335 115.305,19.719 L115.142,19.719 C115.068,19.465 115.022,18.899 115.005,18.025 C114.986,17.151 114.959,16.241 114.923,15.293 L111.644,15.293 C111.644,15.621 111.662,16.085 111.699,16.687 C111.734,17.288 111.762,17.935 111.781,18.627 C111.799,19.319 111.826,20.002 111.862,20.676 C111.898,21.35 111.917,21.924 111.917,22.397 L111.917,40.54 L115.196,40.54 L115.196,27.917 C115.196,26.168 115.423,24.647 115.879,23.354 C116.334,22.061 116.953,20.985 117.737,20.129 C118.52,19.274 119.449,18.636 120.524,18.217 C121.599,17.798 122.737,17.588 123.94,17.588 C125.725,17.588 127.045,18.298 127.902,19.719 C128.757,21.14 129.186,23.017 129.186,25.348 L129.186,40.54 L132.465,40.54 L132.465,26.332 C132.465,25.421 132.583,24.456 132.82,23.436 C133.057,22.416 133.457,21.468 134.022,20.594 C134.587,19.719 135.361,19.001 136.345,18.435 C137.329,17.871 138.585,17.588 140.116,17.588 C141.427,17.588 142.493,17.816 143.313,18.271 C144.133,18.727 144.77,19.337 145.226,20.102 C145.681,20.867 145.999,21.733 146.182,22.697 C146.363,23.664 146.455,24.656 146.455,25.676 L146.455,40.54 L149.733,40.54 L149.733,25.512 C149.733,24.128 149.597,22.78 149.324,21.468 C149.051,20.156 148.559,19.001 147.849,17.998 Z M159.023,40.54 L162.302,40.54 L162.302,15.293 L159.023,15.293 L159.023,40.54 Z M159.023,11.934 L162.302,11.934 L162.302,8.025 L159.023,8.025 L159.023,11.934 Z M99.349,11.934 L102.627,11.934 L102.627,8.025 L99.349,8.025 L99.349,11.934 Z M196.729,25.785 C196.729,25.458 196.875,24.848 197.167,23.955 C197.458,23.063 197.949,22.143 198.643,21.195 C199.334,20.248 200.272,19.41 201.456,18.681 C202.64,17.953 204.125,17.588 205.91,17.588 C207.112,17.588 208.251,17.807 209.326,18.244 C210.4,18.681 211.329,19.274 212.113,20.02 C212.896,20.767 213.515,21.632 213.971,22.616 C214.426,23.6 214.654,24.656 214.654,25.785 L196.729,25.785 Z M217.933,26.441 C217.933,24.984 217.678,23.545 217.168,22.124 C216.657,20.703 215.901,19.438 214.9,18.326 C213.897,17.215 212.659,16.322 211.184,15.648 C209.708,14.975 208.005,14.637 206.074,14.637 C204.217,14.637 202.521,14.975 200.992,15.648 C199.462,16.322 198.132,17.252 197.003,18.435 C195.873,19.62 194.999,21.013 194.379,22.616 C193.76,24.219 193.451,25.968 193.451,27.862 C193.451,29.829 193.751,31.624 194.352,33.245 C194.953,34.866 195.818,36.269 196.948,37.453 C198.077,38.637 199.425,39.557 200.992,40.212 C202.558,40.868 204.307,41.196 206.238,41.196 C208.496,41.196 210.564,40.777 212.44,39.939 C214.316,39.102 215.892,37.717 217.168,35.786 L214.764,33.764 C213.925,35.149 212.723,36.242 211.156,37.043 C209.59,37.845 207.968,38.245 206.293,38.245 C204.361,38.245 202.786,37.881 201.565,37.152 C200.345,36.424 199.37,35.549 198.643,34.529 C197.913,33.509 197.412,32.462 197.14,31.387 C196.866,30.313 196.729,29.429 196.729,28.736 L217.933,28.736 L217.933,26.441 Z M188.369,17.26 L188.369,15.293 L169.46,15.293 L169.46,18.244 L183.833,18.244 L168.695,38.573 L168.695,40.54 L189.024,40.54 L189.024,37.589 L173.285,37.589 L188.369,17.26 Z M91.07,37.999 C90.433,38.163 89.804,38.245 89.185,38.245 C88.092,38.245 87.235,37.936 86.617,37.316 C85.997,36.697 85.688,35.822 85.688,34.693 L85.688,18.244 L92.901,18.244 L92.901,15.293 L85.688,15.293 L85.688,8.025 L82.409,8.025 L82.409,15.293 L76.944,15.293 L76.944,18.244 L82.409,18.244 L82.409,34.693 C82.409,35.604 82.526,36.451 82.764,37.234 C83.001,38.018 83.374,38.701 83.884,39.283 C84.394,39.866 85.068,40.331 85.906,40.677 C86.744,41.023 87.746,41.196 88.912,41.196 C89.531,41.196 90.241,41.105 91.043,40.923 C91.844,40.74 92.555,40.54 93.174,40.322 L92.901,37.371 C92.318,37.626 91.708,37.835 91.07,37.999 Z M35.248,27.917 C34.483,29.993 33.39,31.796 31.969,33.327 C30.548,34.857 28.827,36.059 26.805,36.934 C24.783,37.808 22.515,38.245 20.001,38.245 C17.487,38.245 15.219,37.808 13.197,36.934 C11.175,36.059 9.454,34.857 8.033,33.327 C6.612,31.796 5.52,29.993 4.754,27.917 C3.989,25.84 3.607,23.6 3.607,21.195 C3.607,18.791 3.989,16.55 4.754,14.473 C5.52,12.397 6.612,10.593 8.033,9.063 C9.454,7.533 11.175,6.331 13.197,5.456 C15.219,4.582 17.487,4.145 20.001,4.145 C22.515,4.145 24.783,4.582 26.805,5.456 C28.827,6.331 30.548,7.533 31.969,9.063 C33.39,10.593 34.483,12.397 35.248,14.473 C36.013,16.55 36.396,18.791 36.396,21.195 C36.396,23.6 36.013,25.84 35.248,27.917 Z M34.428,6.631 C32.68,4.828 30.575,3.417 28.116,2.396 C25.657,1.377 22.952,0.866 20.001,0.866 C17.05,0.866 14.345,1.377 11.886,2.396 C9.427,3.417 7.323,4.828 5.574,6.631 C3.825,8.435 2.459,10.575 1.476,13.052 C0.492,15.53 0,18.244 0,21.195 C0,24.146 0.492,26.87 1.476,29.365 C2.459,31.861 3.825,34.01 5.574,35.813 C7.323,37.617 9.427,39.02 11.886,40.021 C14.345,41.023 17.05,41.524 20.001,41.524 C22.952,41.524 25.657,41.023 28.116,40.021 C30.575,39.02 32.68,37.617 34.428,35.813 C36.177,34.01 37.543,31.861 38.527,29.365 C39.51,26.87 40.002,24.146 40.002,21.195 C40.002,18.244 39.51,15.53 38.527,13.052 C37.543,10.575 36.177,8.435 34.428,6.631 Z M99.349,40.54 L102.627,40.54 L102.627,15.293 L99.349,15.293 L99.349,40.54 Z M69.266,31.933 C68.811,33.19 68.146,34.283 67.272,35.212 C66.397,36.141 65.34,36.879 64.102,37.425 C62.863,37.972 61.479,38.245 59.949,38.245 C58.455,38.245 57.07,37.972 55.795,37.425 C54.52,36.879 53.409,36.141 52.462,35.212 C51.514,34.283 50.768,33.19 50.222,31.933 C49.675,30.676 49.401,29.337 49.401,27.917 C49.401,26.496 49.675,25.157 50.222,23.9 C50.768,22.643 51.514,21.55 52.462,20.621 C53.409,19.692 54.52,18.954 55.795,18.408 C57.07,17.861 58.455,17.588 59.949,17.588 C61.479,17.588 62.863,17.861 64.102,18.408 C65.34,18.954 66.397,19.692 67.272,20.621 C68.146,21.55 68.811,22.643 69.266,23.9 C69.722,25.157 69.949,26.496 69.949,27.917 C69.949,29.337 69.722,30.676 69.266,31.933 Z M69.485,18.38 C68.3,17.197 66.898,16.276 65.277,15.621 C63.655,14.965 61.879,14.637 59.949,14.637 C59.001,14.637 58.036,14.738 57.052,14.938 C56.069,15.138 55.13,15.448 54.238,15.867 C53.345,16.286 52.517,16.815 51.752,17.451 C50.986,18.089 50.349,18.845 49.839,19.719 L49.73,19.719 L49.73,15.293 L46.451,15.293 L46.451,53 L49.73,53 L49.73,36.114 L49.839,36.114 C50.349,36.988 50.986,37.745 51.752,38.381 C52.517,39.02 53.345,39.548 54.238,39.966 C55.13,40.386 56.069,40.695 57.052,40.896 C58.036,41.095 59.001,41.196 59.949,41.196 C61.879,41.196 63.655,40.868 65.277,40.212 C66.898,39.557 68.3,38.637 69.485,37.453 C70.669,36.269 71.589,34.866 72.245,33.245 C72.9,31.624 73.228,29.848 73.228,27.917 C73.228,25.986 72.9,24.21 72.245,22.588 C71.589,20.968 70.669,19.565 69.485,18.38 L69.485,18.38 Z" id="Fill-5" fill="#2E283A" mask="url(#mask-2)"></path>
        </g>
    </g>
</svg>